<svg width="398" height="160" viewBox="0 0 398 160" fill="none" xmlns="http://www.w3.org/2000/svg">
<g clip-path="url(#clip0_1816_8504)">
<path d="M106.758 95.2381C107.298 95.2381 107.568 96.6893 107.568 99.5918C107.568 101.587 107.388 103.492 107.028 105.306C106.848 107.12 106.577 108.027 106.217 108.027L88.3921 107.211V145.034C88.3921 146.848 87.6719 148.118 86.2315 148.843L64.8955 159.456C63.8153 159.819 63.2749 160 63.2749 160C62.7349 160 62.4649 159.274 62.4649 157.823V106.395C51.6619 106.213 31.6761 106.122 2.50787 106.122C1.60761 106.122 0.887415 105.76 0.347261 105.034C-0.192892 104.308 -0.102917 103.583 0.617287 102.857L84.3409 0.544216C84.7011 0.181403 85.2413 0 85.9615 0C86.5018 0 87.0417 0.181403 87.5819 0.544216C88.1222 0.725624 88.3921 1.08844 88.3921 1.63266V95.7823C91.9931 95.7823 98.115 95.6009 106.758 95.2381ZM18.7124 96.8707C39.5984 96.8707 54.1826 96.7801 62.4649 96.5987V41.6326L17.3621 94.966C16.2817 96.2359 16.7318 96.8707 18.7124 96.8707Z" fill="#E6E6E6"/>
<path d="M395.038 95.2381C395.578 95.2381 395.849 96.6893 395.849 99.5918C395.849 101.587 395.669 103.492 395.309 105.306C395.129 107.12 394.86 108.027 394.498 108.027L376.674 107.211V145.034C376.674 146.848 375.954 148.118 374.512 148.843L353.177 159.456C352.097 159.819 351.557 160 351.557 160C351.017 160 350.746 159.274 350.746 157.823V106.395C339.944 106.213 319.958 106.122 290.79 106.122C289.889 106.122 289.168 105.76 288.628 105.034C288.088 104.308 288.179 103.583 288.899 102.857L372.623 0.544216C372.983 0.181403 373.523 0 374.243 0C374.783 0 375.323 0.181403 375.863 0.544216C376.403 0.725624 376.674 1.08844 376.674 1.63266V95.7823C380.276 95.7823 386.396 95.6009 395.038 95.2381ZM306.994 96.8707C327.88 96.8707 342.464 96.7801 350.746 96.5987V41.6326L305.643 94.966C304.563 96.2359 305.013 96.8707 306.994 96.8707Z" fill="#E6E6E6"/>
<path fill-rule="evenodd" clip-rule="evenodd" d="M245.253 80C245.253 118.195 220.865 142.703 197.923 142.703C190.684 142.703 183.302 140.263 176.587 135.723L231.992 36.6313C239.963 47.3894 245.253 62.2099 245.253 80ZM219.185 24.2266C212.491 19.7191 205.136 17.2973 197.923 17.2973C174.98 17.2973 150.594 41.8045 150.594 80C150.594 97.747 155.858 112.539 163.797 123.29L219.185 24.2266ZM262.464 80C262.464 124.183 233.569 160 197.923 160C162.279 160 133.383 124.183 133.383 80C133.383 35.8173 162.279 0 197.923 0C233.569 0 262.464 35.8173 262.464 80Z" fill="#E6E6E6"/>
</g>
<defs>
<clipPath id="clip0_1816_8504">
<rect width="398" height="160" fill="white"/>
</clipPath>
</defs>
</svg>
