<svg width="40" height="24" viewBox="0 0 40 24" fill="none" xmlns="http://www.w3.org/2000/svg">
<path fill-rule="evenodd" clip-rule="evenodd" d="M12 23C18.0751 23 23 18.0751 23 12C23 5.92487 18.0751 1 12 1C5.92487 1 1 5.92487 1 12C1 18.0751 5.92487 23 12 23ZM12 24C18.6274 24 24 18.6274 24 12C24 5.37258 18.6274 0 12 0C5.37258 0 0 5.37258 0 12C0 18.6274 5.37258 24 12 24Z" fill="#1F1F1F"/>
<path fill-rule="evenodd" clip-rule="evenodd" d="M28 23C34.0751 23 39 18.0751 39 12C39 5.92487 34.0751 1 28 1C21.9249 1 17 5.92487 17 12C17 18.0751 21.9249 23 28 23ZM28 24C34.6274 24 40 18.6274 40 12C40 5.37258 34.6274 0 28 0C21.3726 0 16 5.37258 16 12C16 18.6274 21.3726 24 28 24Z" fill="#1F1F1F"/>
</svg>
