<svg width="24" height="24" viewBox="0 0 24 24" fill="none" xmlns="http://www.w3.org/2000/svg">
<path d="M13.3902 22.2453H10.0895C9.53812 22.2453 9.08963 21.7976 9.08963 21.2474V13.8169H7.16389C6.61255 13.8169 6.16406 13.3691 6.16406 12.819V9.63499C6.16406 9.08473 6.61255 8.63712 7.16389 8.63712H9.08963V7.04269C9.08963 5.46176 9.58703 4.11672 10.5279 3.15322C11.473 2.18532 12.7938 1.67383 14.3474 1.67383L16.8648 1.67791C17.4152 1.67885 17.8629 2.12646 17.8629 2.67578V5.63205C17.8629 6.1823 17.4145 6.62992 16.8634 6.62992L15.1685 6.63055C14.6516 6.63055 14.5199 6.73397 14.4918 6.76568C14.4454 6.81825 14.3902 6.96688 14.3902 7.3773V8.63696H16.736C16.9126 8.63696 17.0837 8.68044 17.2307 8.76236C17.5479 8.93924 17.7451 9.2737 17.7451 9.63515L17.7438 12.8191C17.7438 13.3691 17.2953 13.8167 16.744 13.8167H14.3902V21.2474C14.3902 21.7976 13.9416 22.2453 13.3902 22.2453ZM10.298 21.0393H13.1817V13.277C13.1817 12.9095 13.4813 12.6107 13.8493 12.6107H16.5355L16.5366 9.84311H13.8491C13.4811 9.84311 13.1817 9.54428 13.1817 9.17686V7.3773C13.1817 6.90615 13.2297 6.37033 13.586 5.9676C14.0166 5.48075 14.6951 5.42456 15.1682 5.42456L16.6545 5.42393V2.88358L14.3465 2.87981C11.8496 2.87981 10.298 4.47503 10.298 7.04269V9.17686C10.298 9.54412 9.99856 9.84311 9.63059 9.84311H7.37241V12.6107H9.63059C9.99856 12.6107 10.298 12.9095 10.298 13.277V21.0393Z" fill="#1F1F1F"/>
<path d="M10.298 21.0393H13.1817V13.277C13.1817 12.9095 13.4813 12.6107 13.8493 12.6107H16.5355L16.5366 9.84311H13.8491C13.4811 9.84311 13.1817 9.54428 13.1817 9.17686V7.3773C13.1817 6.90615 13.2297 6.37033 13.586 5.9676C14.0166 5.48075 14.6951 5.42456 15.1682 5.42456L16.6545 5.42393V2.88358L14.3465 2.87981C11.8496 2.87981 10.298 4.47503 10.298 7.04269V9.17686C10.298 9.54412 9.99856 9.84311 9.63059 9.84311H7.37241V12.6107H9.63059C9.99856 12.6107 10.298 12.9095 10.298 13.277V21.0393Z" fill="#1F1F1F"/>
</svg>
