<svg width="24" height="24" viewBox="0 0 24 24" fill="none" xmlns="http://www.w3.org/2000/svg">
<g clip-path="url(#clip0_1816_8775)">
<path d="M22.5 12H1.5C0.673 12 0 11.327 0 10.5V6.5C0 5.673 0.673 5 1.5 5H22.5C23.327 5 24 5.673 24 6.5V10.5C24 11.327 23.327 12 22.5 12ZM1.5 6C1.225 6 1 6.224 1 6.5V10.5C1 10.776 1.225 11 1.5 11H22.5C22.775 11 23 10.776 23 10.5V6.5C23 6.224 22.775 6 22.5 6H1.5Z" fill="white"/>
<path d="M19.5 24H4.5C3.121 24 2 22.878 2 21.5V11.5C2 11.224 2.224 11 2.5 11C2.776 11 3 11.224 3 11.5V21.5C3 22.327 3.673 23 4.5 23H19.5C20.327 23 21 22.327 21 21.5V11.5C21 11.224 21.224 11 21.5 11C21.776 11 22 11.224 22 11.5V21.5C22 22.878 20.879 24 19.5 24Z" fill="white"/>
<path d="M12 24C11.724 24 11.5 23.776 11.5 23.5V11.5C11.5 11.224 11.724 11 12 11C12.276 11 12.5 11.224 12.5 11.5V23.5C12.5 23.776 12.276 24 12 24Z" fill="white"/>
<path d="M12 6.00023C11.964 6.00023 11.928 5.99623 11.892 5.98823C11.262 5.84823 8.075 5.10923 7.233 4.26723C6.76 3.79623 6.5 3.16823 6.5 2.50023C6.5 1.83223 6.76 1.20423 7.232 0.732227C8.207 -0.242773 9.79299 -0.242773 10.767 0.732227C11.609 1.57323 12.348 4.76123 12.488 5.39223C12.525 5.55923 12.474 5.73323 12.353 5.85323C12.259 5.94823 12.131 6.00023 12 6.00023V6.00023ZM9 1.00123C8.616 1.00123 8.231 1.14723 7.939 1.43923C7.656 1.72323 7.5 2.09923 7.5 2.50023C7.5 2.90123 7.656 3.27723 7.939 3.56123C8.328 3.95023 9.95399 4.47523 11.324 4.82523C10.973 3.45523 10.449 1.82923 10.06 1.44023C9.769 1.14723 9.384 1.00123 9 1.00123Z" fill="white"/>
<path d="M12.0008 6.0002C11.8698 6.0002 11.7418 5.9482 11.6468 5.8542C11.5258 5.7332 11.4748 5.5592 11.5118 5.3932C11.6518 4.7622 12.3908 1.5752 13.2328 0.733203C14.2078 -0.242797 15.7938 -0.240797 16.7679 0.733203C17.2409 1.2042 17.5009 1.8322 17.5009 2.5002C17.5009 3.1682 17.2409 3.7962 16.7689 4.2682C15.9268 5.1102 12.7398 5.8492 12.1098 5.9892C12.0728 5.9962 12.0368 6.0002 12.0008 6.0002V6.0002ZM15.0008 1.0012C14.6168 1.0012 14.2318 1.1472 13.9398 1.4392C13.5508 1.8282 13.0268 3.4542 12.6758 4.8242C14.0458 4.4742 15.6718 3.9492 16.0608 3.5602C16.3448 3.2772 16.5009 2.9012 16.5009 2.5002C16.5009 2.0992 16.3449 1.7232 16.0619 1.4392C15.7699 1.1472 15.3848 1.0012 15.0008 1.0012V1.0012ZM13.5868 1.0862H13.5968H13.5868Z" fill="white"/>
</g>
<defs>
<clipPath id="clip0_1816_8775">
<rect width="24" height="24" fill="white"/>
</clipPath>
</defs>
</svg>
